<?xml version="1.0" encoding="utf-8"?>
<svg version="1.1" id="BMS_Logo_Final_RZ" xmlns="http://www.w3.org/2000/svg" xmlns:xlink="http://www.w3.org/1999/xlink" x="0px"
	 y="0px" viewBox="0 0 284.3 82.5" style="enable-background:new 0 0 284.3 82.5;" xml:space="preserve">
<style type="text/css">
	.st0{fill:#E60014;}
	.st1{fill:#738291;}
	.st2{fill:#FFFFFF;}
</style>
<path d="M259.3,82.1c17.7,0,24.6-8,24.6-18.5c0-9.3-5.6-15.3-21.2-18.2c-11.9-2.2-14.9-4.6-14.9-9c0-3.4,1.9-7,10.2-7
	c7.8,0,10.5,3.6,10.5,8l1.9,1.7h9.3l1.7-1.7c-0.2-9.7-6.8-17.7-23.1-17.7c-15.6,0-22.9,7.5-22.9,17c0,9.3,6.5,16,21.2,18.5
	c10.7,1.9,14.8,4.1,14.8,9.5c0,3.6-3.1,7.6-11.7,7.6c-8.8,0-12.6-3.9-12.6-9.5l-1.7-1.7h-9.2l-1.7,1.7
	C234.6,73.1,240.9,82.1,259.3,82.1L259.3,82.1z"/>
<path d="M138.3,49.8c6.3-1.7,9.7-6.5,9.7-13.4c0-9.7-6.8-15.8-17.7-15.8h-27.5l-1.7,1.7v57.2l1.7,1.7h29.2
	c11.2,0,17.7-6.3,17.7-16.8C149.7,56.4,146,51.5,138.3,49.8z M113.4,30.6h15.1c5.3,0,7,2.7,7,7.1c0,3.4-1.7,7.5-7,7.5h-15.1V30.6z
	 M128.5,71.2h-15.1v-16h15.1c6.1,0,8.7,2.9,8.7,8C137.1,68.5,134.6,71.2,128.5,71.2z"/>
<polygon points="162.3,81.2 170.9,81.2 172.6,79.5 172.6,42 186.4,79.7 188.4,81.2 196.4,81.2 198.5,79.7 212,42 212,79.5
	213.7,81.2 222.4,81.2 224.1,79.5 224.1,22.3 222.4,20.6 210.5,20.6 208.3,22.1 192.5,65.6 176.7,22.1 174.5,20.6 162.3,20.6
	160.6,22.3 160.6,79.5 "/>
<polygon class="st0" points="40.7,61 79.2,61 81.1,59.2 81.1,2.3 79.2,0.4 42.5,0.4 40.7,2.3 40.7,20.6 59,20.6 60.9,22.5 60.9,39
	59,40.8 40.7,40.8 "/>
<polygon class="st1" points="2.3,81.2 59,81.2 60.9,79.4 60.9,61 22.5,61 20.6,59.2 20.6,42.7 22.5,40.8 40.7,40.8 40.7,20.6
	2.3,20.6 0.4,22.5 0.4,79.4 "/>
</svg>
